HIERARCHY
ROOT Hips
{
	OFFSET 0 0 0
	CHANNELS 6 Xposition Yposition Zposition Yrotation Xrotation Zrotation
	JOINT Spine
	{
		OFFSET -0 8.37147 -2.66841
		CHANNELS 3 Yrotation Xrotation Zrotation
		JOINT Spine1
		{
			OFFSET -0 8.81736 0
			CHANNELS 3 Yrotation Xrotation Zrotation
			JOINT Spine2
			{
				OFFSET -0 8.81736 0
				CHANNELS 3 Yrotation Xrotation Zrotation
				JOINT Spine3
				{
					OFFSET -0 8.81736 0
					CHANNELS 3 Yrotation Xrotation Zrotation
					JOINT Neck
					{
						OFFSET -0 20.2165 3.66841
						CHANNELS 3 Yrotation Xrotation Zrotation
						JOINT Head
						{
							OFFSET -0 10.4643 0
							CHANNELS 3 Yrotation Xrotation Zrotation
							End Site
							{
								OFFSET 0 15 0
							}
						}
					}
					JOINT LeftShoulder
					{
						OFFSET 1.74406 7.24 3.48811
						CHANNELS 3 Yrotation Xrotation Zrotation
						JOINT LeftArm
						{
							OFFSET 15.166 0 0
							CHANNELS 3 Yrotation Xrotation Zrotation
							JOINT LeftForeArm
							{
								OFFSET 25.1836 0 0
								CHANNELS 3 Yrotation Xrotation Zrotation
								JOINT LeftHand
								{
									OFFSET 23.8595 0 0
									CHANNELS 3 Yrotation Xrotation Zrotation
									End Site
									{
										OFFSET 15 0 0
									}
								}
							}
						}
					}
					JOINT RightShoulder
					{
						OFFSET -1.74406 7.24 3.48811
						CHANNELS 3 Yrotation Xrotation Zrotation
						JOINT RightArm
						{
							OFFSET -15.166 0 0
							CHANNELS 3 Yrotation Xrotation Zrotation
							JOINT RightForeArm
							{
								OFFSET -25.1836 0 0
								CHANNELS 3 Yrotation Xrotation Zrotation
								JOINT RightHand
								{
									OFFSET -23.8595 0 0
									CHANNELS 3 Yrotation Xrotation Zrotation
									End Site
									{
										OFFSET -15 0 0
									}
								}
							}
						}
					}
				}
			}
		}
	}
	JOINT LeftUpLeg
	{
		OFFSET 10.4643 -3.48811 2
		CHANNELS 3 Yrotation Xrotation Zrotation
		JOINT LeftLeg
		{
			OFFSET -0 -38.892 2.44168
			CHANNELS 3 Yrotation Xrotation Zrotation
			JOINT LeftFoot
			{
				OFFSET -0 -41.3956 -2.44168
				CHANNELS 3 Yrotation Xrotation Zrotation
				JOINT LeftToeBase
				{
					OFFSET -0 -6.7338 15.6965
					CHANNELS 3 Yrotation Xrotation Zrotation
					End Site
					{
						OFFSET 0 0 5
					}
				}
			}
		}
	}
	JOINT RightUpLeg
	{
		OFFSET -10.4643 -3.48811 2
		CHANNELS 3 Yrotation Xrotation Zrotation
		JOINT RightLeg
		{
			OFFSET -0 -38.892 2.44168
			CHANNELS 3 Yrotation Xrotation Zrotation
			JOINT RightFoot
			{
				OFFSET -0 -41.3956 -2.44168
				CHANNELS 3 Yrotation Xrotation Zrotation
				JOINT RightToeBase
				{
					OFFSET -0 -6.7338 15.6965
					CHANNELS 3 Yrotation Xrotation Zrotation
					End Site
					{
						OFFSET 0 0 5
					}
				}
			}
		}
	}
}
MOTION
Frames: 17
Frame Time: 0.00833333
0 93.707184 0 0 0 0 0 0 0 0 0 0 0 0 0 0 0 0 0 0 0 0 0 0 0 0 0 0 0 0 0 0 0 0 0 0 0 0 0 0 0 0 0 0 0 0 0 0 0 0 0 0 0 0 0 0 0 0 0 0 0 0 0 0 0 0 0 0 0 0 0 0
-82.851373 93.172070 -3.639584 -3.312569 -2.091411 0.629987 -0.234618 0.756081 -0.217967 -0.212062 0.909766 -0.165886 -0.110268 0.937284 -0.096056 -0.072293 1.012808 -0.032196 2.667933 -3.761110 1.233322 0.986874 7.833271 -2.715258 14.496217 12.279654 2.067433 -38.980663 5.887161 -57.151607 -14.683419 -1.988130 7.132117 10.017980 -6.513515 -21.657512 -7.899843 2.393347 -1.464611 31.921834 13.367250 58.201360 19.710695 6.922260 -5.717015 -14.323679 -5.283857 24.287579 5.691134 6.792882 6.450842 0.000000 -0.192092 0.000000 13.198618 1.589699 -2.374028 0.000000 -3.738924 0.000000 -7.546866 7.895060 -7.009206 0.000000 -1.172704 0.000000 -3.084593 -1.541456 3.234453 0.000000 -2.892214 0.000000
-82.849042 93.174536 -3.640484 -3.318457 -2.093112 0.632901 -0.235253 0.742099 -0.211034 -0.213396 0.924280 -0.165992 -0.118529 0.917967 -0.100986 -0.080800 1.038525 -0.042286 2.676708 -3.744395 1.221316 0.991330 7.839466 -2.695297 14.481211 12.278060 2.044800 -38.888046 5.880854 -57.135459 -14.716250 -1.969392 7.130653 10.040237 -6.482705 -21.690435 -7.864220 2.393594 -1.457489 31.894400 13.350875 58.193139 19.671488 6.983527 -5.669660 -14.300869 -5.273967 24.114645 5.718013 6.788635 6.444287 0.000000 -0.186290 0.000000 13.190834 1.584469 -2.348409 0.000000 -3.744834 0.000000 -7.539021 7.893582 -7.014773 0.000000 -1.172853 0.000000 -3.077810 -1.522996 3.239345 0.000000 -2.935335 0.000000
-82.845612 93.176709 -3.641595 -3.322299 -2.098273 0.615069 -0.229720 0.755223 -0.164526 -0.208242 0.914260 -0.164669 -0.111474 0.929589 -0.128014 -0.076056 1.019533 -0.048778 2.647935 -3.729567 1.206156 0.980020 7.845693 -2.669767 14.474518 12.308945 2.032442 -38.935297 5.900201 -57.091010 -14.719145 -1.976053 7.106047 10.019129 -6.493487 -21.608909 -7.897382 2.395643 -1.441594 31.914948 13.387082 58.186791 19.704664 6.927413 -5.702752 -14.361664 -5.393154 24.225290 5.677693 6.797687 6.457782 0.000000 -0.186657 0.000000 13.233319 1.598490 -2.362239 0.000000 -3.773851 0.000000 -7.556060 7.885391 -7.006372 0.000000 -1.152973 0.000000 -3.051069 -1.500725 3.306317 0.000000 -2.966841 0.000000
-82.844769 93.173730 -3.643562 -3.325795 -2.098949 0.616726 -0.237294 0.738451 -0.187163 -0.216394 0.928226 -0.157935 -0.110248 0.940222 -0.106881 -0.074338 1.017574 -0.041531 2.665145 -3.710056 1.213280 0.984631 7.837182 -2.729908 14.498428 12.310543 2.024673 -38.943060 5.867212 -57.099335 -14.681331 -1.937587 7.104350 9.985524 -6.463814 -21.623422 -7.895699 2.383964 -1.467928 31.958681 13.389041 58.185457 19.695275 6.812655 -5.715886 -14.389810 -5.322566 24.249510 5.681867 6.796902 6.456132 0.000000 -0.187943 0.000000 13.229446 1.599090 -2.339061 0.000000 -3.795153 0.000000 -7.544738 7.887164 -7.009277 0.000000 -1.155110 0.000000 -3.052630 -1.522845 3.301855 0.000000 -2.920035 0.000000
-82.839636 93.171283 -3.645594 -3.341417 -2.100487 0.635770 -0.239457 0.745342 -0.199696 -0.218723 0.909616 -0.153800 -0.105678 0.932330 -0.101957 -0.068839 1.038034 -0.065324 2.671856 -3.687943 1.211935 0.987228 7.830245 -2.728786 14.483445 12.302712 2.035535 -38.931272 5.889226 -57.107119 -14.710903 -1.982219 7.094353 9.990344 -6.479260 -21.621635 -7.865663 2.405506 -1.460310 31.891414 13.342290 58.170890 19.639414 6.939455 -5.706841 -14.323236 -5.363572 24.239187 5.706840 6.790121 6.434529 0.000000 -0.170802 0.000000 13.212730 1.585886 -2.335510 0.000000 -3.764991 0.000000 -7.551539 7.890645 -7.026295 0.000000 -1.170795 0.000000 -3.053158 -1.536731 3.256331 0.000000 -2.904137 0.000000
-82.837219 93.178046 -3.645420 -3.344162 -2.106105 0.606633 -0.235582 0.749467 -0.160358 -0.214950 0.915895 -0.151024 -0.109186 0.935691 -0.114925 -0.074510 1.028668 -0.054096 2.677095 -3.682299 1.205066 0.988700 7.829864 -2.756985 14.490142 12.309980 2.000379 -38.946568 5.912569 -57.092954 -14.730044 -2.025653 7.101160 9.991634 -6.432689 -21.597712 -7.873440 2.407355 -1.426944 31.905105 13.385203 58.116627 19.610704 7.036705 -5.640519 -14.239216 -5.355865 24.050453 5.669699 6.804220 6.459609 0.000000 -0.177323 0.000000 13.264889 1.581895 -2.349700 0.000000 -3.745319 0.000000 -7.554517 7.876546 -7.008497 0.000000 -1.138716 0.000000 -3.020093 -1.488337 3.343769 0.000000 -2.987266 0.000000
-82.835071 93.171912 -3.646907 -3.358673 -2.109075 0.629335 -0.231113 0.750016 -0.167324 -0.210882 0.906193 -0.156881 -0.105902 0.945777 -0.123048 -0.071892 1.037962 -0.065024 2.684474 -3.685012 1.211746 0.990145 7.842136 -2.785996 14.489992 12.314318 2.038505 -38.933902 5.872006 -57.106866 -14.719435 -1.960564 7.098152 9.982591 -6.440115 -21.629704 -7.860128 2.403651 -1.446856 31.864898 13.355556 58.138359 19.654941 6.983786 -5.670020 -14.327264 -5.318552 24.153299 5.659729 6.804196 6.435297 0.000000 -0.159002 0.000000 13.279209 1.581692 -2.377261 0.000000 -3.761744 0.000000 -7.547294 7.886902 -7.024954 0.000000 -1.158250 0.000000 -3.059491 -1.532709 3.305243 0.000000 -2.900221 0.000000
-82.834357 93.173059 -3.650463 -3.360765 -2.110880 0.628077 -0.233825 0.747164 -0.168862 -0.213726 0.915071 -0.155055 -0.102309 0.947009 -0.119809 -0.068318 1.036867 -0.062874 2.690742 -3.676620 1.205398 0.992257 7.832576 -2.814186 14.493444 12.317919 2.037936 -38.949166 5.863610 -57.110112 -14.717546 -1.943373 7.095072 10.007522 -6.449373 -21.638662 -7.862042 2.400565 -1.441888 31.850957 13.348493 58.123066 19.619611 7.045836 -5.640383 -14.242408 -5.274999 24.060021 5.660803 6.802389 6.435673 0.000000 -0.161576 0.000000 13.281532 1.585213 -2.368691 0.000000 -3.757367 0.000000 -7.542824 7.886269 -7.026776 0.000000 -1.157117 0.000000 -3.035860 -1.521826 3.265497 0.000000 -2.894620 0.000000
-82.833917 93.172198 -3.655245 -3.366695 -2.111400 0.633733 -0.230254 0.744930 -0.186594 -0.210391 0.922658 -0.151542 -0.102948 0.951328 -0.101870 -0.068822 1.019993 -0.052949 2.712117 -3.642276 1.192141 0.999638 7.832844 -2.856558 14.465107 12.322096 2.044731 -38.923740 5.856497 -57.149149 -14.739755 -1.917465 7.090179 10.016356 -6.458942 -21.595625 -7.849416 2.406591 -1.471400 31.820791 13.341439 58.133571 19.657809 7.021690 -5.670950 -14.329052 -5.282834 24.155062 5.670492 6.799112 6.431452 0.000000 -0.153323 0.000000 13.278448 1.569001 -2.384041 0.000000 -3.701275 0.000000 -7.534821 7.887421 -7.030232 0.000000 -1.165152 0.000000 -3.046733 -1.535093 3.272400 0.000000 -2.898962 0.000000
-82.829987 93.174591 -3.654863 -3.374631 -2.116043 0.615954 -0.230152 0.753808 -0.153817 -0.210212 0.912208 -0.145922 -0.107908 0.943603 -0.115257 -0.075022 1.035086 -0.056303 2.739374 -3.640742 1.161298 1.013341 7.845725 -2.836236 14.501645 12.334142 2.039144 -38.979183 5.846464 -57.151967 -14.703850 -1.938117 7.114741 9.993986 -6.448664 -21.621370 -7.861836 2.420301 -1.467887 31.874325 13.334526 58.106434 19.653299 6.985528 -5.650297 -14.324190 -5.271646 24.086882 5.643480 6.808704 6.439380 0.000000 -0.158210 0.000000 13.323465 1.583738 -2.351567 0.000000 -3.739634 0.000000 -7.545716 7.878870 -7.020178 0.000000 -1.149176 0.000000 -3.018537 -1.493757 3.327984 0.000000 -2.976540 0.000000
-82.831836 93.172528 -3.658493 -3.382264 -2.115251 0.629024 -0.226039 0.769481 -0.176354 -0.206002 0.896800 -0.148647 -0.119937 0.940100 -0.102494 -0.087576 1.031682 -0.042972 2.782824 -3.623568 1.139953 1.031320 7.858014 -2.863990 14.531177 12.331324 2.047025 -38.999696 5.851468 -57.176719 -14.718163 -1.873086 7.122235 10.038997 -6.505044 -21.658014 -7.846660 2.450739 -1.489800 31.878417 13.301554 58.110990 19.634339 7.017436 -5.707488 -14.309184 -5.419080 24.252948 5.667782 6.803566 6.433007 0.000000 -0.155310 0.000000 13.291195 1.584910 -2.352842 0.000000 -3.743618 0.000000 -7.554105 7.881104 -7.028618 0.000000 -1.162754 0.000000 -3.015482 -1.518519 3.262374 0.000000 -2.917760 0.000000
-82.829083 93.177368 -3.659421 -3.385184 -2.118556 0.619003 -0.231486 0.760334 -0.162813 -0.212061 0.912879 -0.143157 -0.105084 0.941465 -0.103774 -0.073079 1.026752 -0.047088 2.795352 -3.632030 1.133411 1.035946 7.894542 -2.868399 14.541122 12.337026 2.039512 -39.039975 5.824264 -57.164012 -14.683189 -1.906132 7.121839 10.014611 -6.469632 -21.677085 -7.863668 2.432884 -1.478815 31.853584 13.315372 58.083954 19.645855 7.087457 -5.630134 -14.293019 -5.419125 24.133798 5.668447 6.804004 6.438316 0.000000 -0.157354 0.000000 13.304209 1.602448 -2.327465 0.000000 -3.783697 0.000000 -7.548775 7.875399 -7.026696 0.000000 -1.148273 0.000000 -2.993489 -1.484352 3.318346 0.000000 -2.976025 0.000000
-82.829199 93.172467 -3.661735 -3.394431 -2.117338 0.626987 -0.222979 0.774348 -0.173332 -0.203489 0.891089 -0.144869 -0.116699 0.934427 -0.099458 -0.085262 1.038779 -0.040854 2.830601 -3.603983 1.090447 1.053889 7.885383 -2.844370 14.559052 12.347808 2.071580 -39.058807 5.790955 -57.204276 -14.679332 -1.895081 7.143752 10.031135 -6.499948 -21.687383 -7.855558 2.467649 -1.504810 31.861037 13.267529 58.085204 19.659567 7.023029 -5.643608 -14.320118 -5.362314 24.116424 5.674439 6.803378 6.433389 0.000000 -0.151772 0.000000 13.302408 1.564518 -2.354029 0.000000 -3.709807 0.000000 -7.579349 7.872083 -7.030650 0.000000 -1.156311 0.000000 -2.983846 -1.515800 3.278634 0.000000 -2.931163 0.000000
-82.827820 93.173950 -3.664564 -3.398755 -2.118748 0.628177 -0.228568 0.753051 -0.179421 -0.209835 0.919853 -0.142637 -0.112477 0.945373 -0.089542 -0.081166 1.023680 -0.032358 2.864734 -3.613254 1.067294 1.068571 7.935812 -2.842832 14.549714 12.363860 2.061097 -39.032854 5.763565 -57.199289 -14.685156 -1.944827 7.121803 10.023842 -6.464761 -21.705684 -7.860310 2.476912 -1.515780 31.894929 13.270976 58.072748 19.654210 7.072570 -5.649471 -14.320542 -5.438743 24.122475 5.663423 6.803573 6.432412 0.000000 -0.147465 0.000000 13.305686 1.590830 -2.365485 0.000000 -3.767280 0.000000 -7.589986 7.869639 -7.031809 0.000000 -1.155685 0.000000 -2.968264 -1.512691 3.249494 0.000000 -2.917111 0.000000
-82.828333 93.175220 -3.668329 -3.404317 -2.119119 0.630077 -0.236064 0.778931 -0.188034 -0.216813 0.895612 -0.141029 -0.104344 0.929203 -0.084885 -0.073115 1.035526 -0.029978 2.909966 -3.594489 1.059330 1.087792 7.934883 -2.848601 14.557658 12.375030 2.073840 -39.056070 5.744944 -57.217817 -14.679565 -1.928414 7.133019 10.046927 -6.491306 -21.678882 -7.844106 2.496375 -1.518289 31.887469 13.268145 58.073387 19.680008 7.043552 -5.652468 -14.322763 -5.428843 24.089459 5.688177 6.798955 6.430800 0.000000 -0.147453 0.000000 13.290645 1.603059 -2.340836 0.000000 -3.777019 0.000000 -7.581203 7.868293 -7.036411 0.000000 -1.156946 0.000000 -2.967756 -1.521913 3.274221 0.000000 -2.901156 0.000000
-82.828949 93.176233 -3.668666 -3.400370 -2.120746 0.617418 -0.236330 0.752176 -0.162274 -0.217761 0.919466 -0.141950 -0.106862 0.955755 -0.101469 -0.076182 1.018414 -0.036797 2.929887 -3.601426 1.075161 1.094132 7.969392 -2.860268 14.577135 12.364895 2.095280 -39.105119 5.736241 -57.226563 -14.651488 -1.928255 7.133489 10.018350 -6.510093 -21.677041 -7.854126 2.470831 -1.504656 31.908705 13.291427 58.077409 19.701779 7.046583 -5.643207 -14.330295 -5.409110 24.083725 5.667335 6.805991 6.441158 0.000000 -0.155152 0.000000 13.304950 1.589571 -2.316438 0.000000 -3.744277 0.000000 -7.597221 7.862029 -7.027396 0.000000 -1.143238 0.000000 -2.952692 -1.501622 3.318270 0.000000 -2.949131 0.000000
